<svg width="38" height="38" viewBox="0 0 38 38" fill="none" xmlns="http://www.w3.org/2000/svg">
<path fill-rule="evenodd" clip-rule="evenodd" d="M20.1638 25.935C46.1035 8.03225 26.79 -5.66912 19 2.34175C11.2077 -5.66912 -8.10585 8.03225 17.8363 25.935L17.2805 27.0465C17.2456 27.1164 17.2248 27.1924 17.2192 27.2703C17.2137 27.3482 17.2236 27.4265 17.2483 27.5006C17.2981 27.6502 17.4054 27.774 17.5465 27.8445C17.6876 27.915 17.851 27.9267 18.0006 27.8768C18.1503 27.8269 18.274 27.7196 18.3445 27.5785L18.4395 27.3885C18.4609 27.7922 18.4965 28.1366 18.5607 28.4573C18.7222 29.2743 19.0547 29.9345 19.6247 31.0745L19.6555 31.141C20.159 32.1433 20.0878 33.1597 19.7743 34.1002C19.4537 35.055 18.905 35.8839 18.506 36.4824C18.4185 36.6134 18.3866 36.7738 18.4173 36.9284C18.448 37.0829 18.5389 37.2189 18.6699 37.3065C18.8009 37.3941 18.9614 37.426 19.1159 37.3952C19.2705 37.3645 19.4065 37.2736 19.494 37.1426L19.5035 37.126C19.8978 36.537 20.5272 35.5918 20.9 34.4779C21.28 33.3403 21.4035 31.9817 20.7195 30.609C20.1068 29.3859 19.8527 28.8705 19.7244 28.2245C19.6811 27.9977 19.6518 27.7685 19.6365 27.5381L19.6555 27.5785C19.7261 27.7196 19.8498 27.8269 19.9994 27.8768C20.1491 27.9267 20.3124 27.915 20.4535 27.8445C20.5946 27.774 20.7019 27.6502 20.7518 27.5006C20.8017 27.3509 20.7901 27.1876 20.7195 27.0465L20.1638 25.935ZM15.9743 3.01388C13.2027 1.56513 9.32428 2.67663 7.77103 5.7095C7.20815 6.80913 6.91603 8.2745 7.29128 10.1033C7.4219 10.7445 8.4004 10.5711 8.5429 9.93463C9.21978 6.95163 11.3383 4.08738 15.6418 3.93063C16.1975 3.91163 16.4683 3.27038 15.9743 3.01388Z" fill="#F24E1E"/>
</svg>
