<svg width="182" height="173" viewBox="0 0 182 173" fill="none" xmlns="http://www.w3.org/2000/svg">
<path d="M44.757 0L1.76172 30.8305L39.1746 42.1957L82.6531 8.17617L44.757 0.00039041V0ZM88.8922 12.1414L42.7801 47.282L62.7293 98.4937L66.0629 95.5816L67.7152 89.4457C66.5966 88.7169 65.6378 87.5317 64.9942 86.082C64.3505 84.6323 64.0595 83.0029 64.1684 81.4574C64.2752 79.957 64.7531 78.6203 65.5289 77.6519C66.3048 76.6835 67.3357 76.1367 68.4641 76.0953C68.9306 76.0782 69.4063 76.1479 69.8781 76.3023C70.2927 76.4404 70.7009 76.6429 71.0941 76.9055L74.1957 65.3898C74.2334 65.2518 74.2794 65.1161 74.3336 64.9836C74.341 64.9669 74.3486 64.9502 74.3563 64.9336C74.3942 64.8427 74.4359 64.7534 74.4812 64.666C74.4928 64.646 74.5045 64.6261 74.5164 64.6062C74.5613 64.523 74.6095 64.4415 74.6609 64.3621C74.7257 64.2646 74.7953 64.1703 74.8695 64.0797C74.8781 64.07 74.8867 64.0604 74.8953 64.0508C74.9621 63.9703 75.0325 63.8929 75.1063 63.8188C75.1871 63.7374 75.2718 63.6601 75.3602 63.5871C75.3607 63.5869 75.3612 63.5866 75.3617 63.5863C75.4202 63.5399 75.4801 63.4954 75.5414 63.4527C75.5756 63.4265 75.6102 63.4008 75.6453 63.3758C75.7094 63.3346 75.7748 63.2955 75.8414 63.2586C75.8762 63.2375 75.9114 63.2171 75.9469 63.1973C76.0034 63.1686 76.0607 63.1415 76.1187 63.116C76.1677 63.0917 76.2172 63.0685 76.2672 63.0465C76.3236 63.0252 76.3805 63.0054 76.4379 62.9871C76.4908 62.9672 76.5442 62.9486 76.598 62.9313C76.6503 62.917 76.703 62.904 76.7559 62.8922C76.8166 62.8757 76.8779 62.8609 76.9395 62.8477C77.0056 62.8366 77.072 62.8275 77.1387 62.8203C77.1867 62.8128 77.2349 62.8063 77.2832 62.8008C77.2845 62.8008 77.2858 62.8008 77.2871 62.8008C77.2884 62.8004 77.2897 62.8 77.291 62.7996L90.4254 61.6773C90.7262 60.5557 91.2589 59.6099 91.9682 58.9383C92.6775 58.2667 93.5376 57.8938 94.459 57.8582C94.9257 57.841 95.4017 57.9107 95.8738 58.0652C97.1471 58.486 98.3318 59.5039 99.2047 60.9273L104.3 60.4926L88.8926 12.1398L88.8922 12.1414ZM44.1523 15.1125C45.8052 15.1469 47.2059 15.5054 48.1171 16.1272C49.0282 16.749 49.3937 17.5959 49.1516 18.5242C48.8735 19.5912 47.8145 20.6844 46.2074 21.5634C44.6003 22.4423 42.5768 23.0349 40.582 23.2109C39.5942 23.2981 38.6432 23.2803 37.7834 23.1586C36.9235 23.0369 36.1715 22.8137 35.5705 22.5016C34.9694 22.1896 34.531 21.7949 34.2803 21.3401C34.0296 20.8852 33.9715 20.3792 34.1094 19.8508C34.2469 19.3224 34.5776 18.782 35.0827 18.2605C35.5878 17.739 36.2573 17.2465 37.0531 16.8112C37.8489 16.3759 38.7553 16.0064 39.7206 15.7236C40.6858 15.4409 41.6911 15.2505 42.6789 15.1633C43.1806 15.1193 43.6739 15.1023 44.1516 15.1125H44.1523ZM83.3039 24.2988C83.3042 24.2988 83.3044 24.2988 83.3047 24.2988C83.7712 24.2818 84.2469 24.3514 84.7188 24.5059C86.1032 24.9588 87.3794 26.1162 88.2667 27.7235C89.154 29.3307 89.5796 31.2561 89.45 33.0762C89.3858 33.9774 89.1871 34.8257 88.8654 35.5725C88.5437 36.3193 88.1052 36.9501 87.575 37.4287C87.0448 37.9074 86.4333 38.2246 85.7753 38.3622C85.1173 38.4999 84.4258 38.4552 83.7402 38.2309C83.0547 38.0067 82.3884 37.6072 81.7796 37.0552C81.1708 36.5031 80.6312 35.8094 80.1918 35.0136C79.7524 34.2177 79.4217 33.3354 79.2186 32.4169C79.0155 31.4984 78.944 30.5618 79.0082 29.6605C79.1151 28.1602 79.5931 26.8235 80.369 25.8551C81.1449 24.8868 82.1759 24.3401 83.3043 24.2988H83.3039ZM0 37.6438L18.3562 82.2234L55.1672 97.9969L37.2031 48.9461L0 37.6434V37.6438ZM57.768 44.4523C58.2347 44.4349 58.7107 44.5043 59.1828 44.6586C60.5671 45.1118 61.8432 46.2693 62.7303 47.8765C63.6174 49.4837 64.0429 51.409 63.9133 53.2289C63.8491 54.1302 63.6505 54.9784 63.3288 55.7252C63.0071 56.4721 62.5687 57.1028 62.0385 57.5815C61.5084 58.0602 60.8968 58.3775 60.2389 58.5152C59.581 58.6528 58.8895 58.6083 58.2039 58.384C56.8194 57.931 55.5432 56.7736 54.6559 55.1664C53.7687 53.5592 53.343 51.6337 53.4727 49.8137C53.5796 48.3135 54.0574 46.9769 54.8332 46.0086C55.6089 45.0402 56.6398 44.4935 57.768 44.452V44.4523ZM28.423 49.5367C29.3913 49.484 30.6051 50.0574 31.8289 51.1458C33.0527 52.2341 34.1993 53.7597 35.0461 55.4266C35.4947 56.3094 35.8462 57.2066 36.0806 58.0669C36.3151 58.9272 36.4278 59.7338 36.4124 60.4405C36.397 61.1473 36.2537 61.7405 35.9908 62.1861C35.7279 62.6318 35.3505 62.9212 34.8801 63.0379C33.9299 63.2731 32.659 62.7904 31.3467 61.6961C30.0345 60.6017 28.7885 58.9853 27.8828 57.2023C26.9774 55.42 26.4863 53.6172 26.5173 52.1903C26.5484 50.7634 27.0991 49.8291 28.0484 49.593C28.1679 49.5629 28.2931 49.5442 28.4234 49.5367H28.423ZM131.311 65.2438L87.5211 68.9848L131.959 100.206L176.334 93.5824L131.311 65.2426V65.2438ZM18.2031 69.0156C19.1713 68.9626 20.3853 69.5358 21.6093 70.6242C22.8333 71.7126 23.98 73.2384 24.827 74.9055C25.7328 76.6883 26.2242 78.4918 26.1931 79.9191C26.1619 81.3464 25.6108 82.2807 24.6609 82.5164C23.7108 82.7517 22.4399 82.2691 21.1277 81.1748C19.8154 80.0805 18.5694 78.4642 17.6637 76.6813C16.758 74.8986 16.2668 73.0954 16.2979 71.6683C16.329 70.2412 16.88 69.307 17.8297 69.0711C17.9492 69.0416 18.0744 69.0234 18.2047 69.0164L18.2031 69.0156ZM79.6789 72.0676L63.4531 132.297L108.616 171.146L127.032 105.338L79.6789 72.0684V72.0676ZM129.283 76.4301C130.495 76.4526 131.829 76.6345 133.17 76.96C134.51 77.2856 135.817 77.745 136.976 78.2984C137.912 78.7455 138.731 79.244 139.387 79.7655C140.043 80.287 140.523 80.8214 140.798 81.3381C141.074 81.8547 141.141 82.3436 140.995 82.7768C140.849 83.2099 140.493 83.5788 139.947 83.8625C139.402 84.1463 138.677 84.3392 137.815 84.4303C136.952 84.5214 135.969 84.5089 134.921 84.3935C133.873 84.278 132.782 84.062 131.708 83.7576C130.634 83.4532 129.6 83.0665 128.664 82.6195C126.773 81.7168 125.398 80.6235 124.841 79.58C124.283 78.5366 124.589 77.6285 125.691 77.0555C126.529 76.6202 127.781 76.4024 129.283 76.4305L129.283 76.4301ZM181.078 99.9836L133.859 107.032L115.569 172.389L160.998 159.979L181.078 99.9836ZM110.059 104.202C110.611 104.203 111.168 104.327 111.715 104.571C112.509 104.925 113.27 105.527 113.952 106.342C114.635 107.156 115.227 108.168 115.694 109.318C116.161 110.469 116.494 111.736 116.674 113.047C116.854 114.359 116.878 115.689 116.743 116.961C116.472 119.531 115.575 121.711 114.248 123.022C112.922 124.333 111.276 124.667 109.671 123.951C108.876 123.596 108.116 122.995 107.433 122.18C106.751 121.366 106.159 120.354 105.692 119.204C105.225 118.053 104.892 116.786 104.712 115.474C104.532 114.163 104.508 112.833 104.642 111.56C104.866 109.442 105.517 107.576 106.495 106.247C107.473 104.918 108.725 104.2 110.059 104.202V104.202ZM170.249 108.748C171.524 108.71 172.58 109.279 173.246 110.361C174.029 111.633 174.215 113.518 173.762 115.601C173.31 117.684 172.257 119.794 170.834 121.468C169.411 123.142 167.736 124.242 166.177 124.526C164.617 124.81 163.302 124.255 162.519 122.983C161.736 121.711 161.55 119.827 162.003 117.744C162.455 115.661 163.508 113.55 164.931 111.876C165.739 110.926 166.637 110.15 167.558 109.609C168.479 109.067 169.399 108.773 170.25 108.748L170.249 108.748ZM143.415 112.913C144.689 112.876 145.745 113.444 146.412 114.527C147.195 115.799 147.38 117.683 146.928 119.766C146.475 121.85 145.422 123.96 143.999 125.634C142.577 127.308 140.901 128.407 139.342 128.691C137.782 128.975 136.467 128.42 135.684 127.148C134.901 125.876 134.716 123.992 135.168 121.909C135.621 119.826 136.674 117.715 138.097 116.041C138.905 115.091 139.803 114.316 140.724 113.774C141.645 113.233 142.565 112.938 143.415 112.913H143.415ZM75.4477 118.111C75.9996 118.111 76.5568 118.235 77.1039 118.48C77.8984 118.834 78.6588 119.436 79.3415 120.251C80.0241 121.065 80.6158 122.077 81.0827 123.227C81.5496 124.378 81.8826 125.645 82.0627 126.956C82.2427 128.268 82.2663 129.598 82.132 130.87C81.9978 132.143 81.7084 133.333 81.2803 134.373C80.8522 135.413 80.2939 136.283 79.6371 136.932C78.9803 137.581 78.238 137.997 77.4526 138.156C76.6671 138.315 75.8539 138.215 75.0594 137.86C74.2648 137.506 73.5044 136.904 72.8217 136.089C72.139 135.275 71.5473 134.263 71.0803 133.113C70.6134 131.962 70.2804 130.695 70.1003 129.384C69.9202 128.072 69.8966 126.742 70.0309 125.47C70.2542 123.351 70.9048 121.485 71.883 120.156C72.8612 118.827 74.1132 118.108 75.4473 118.11L75.4477 118.111ZM158.369 141.888C159.643 141.851 160.699 142.419 161.365 143.501C162.148 144.773 162.333 146.658 161.881 148.741C161.429 150.824 160.376 152.934 158.953 154.608C157.53 156.282 155.855 157.382 154.296 157.666C152.736 157.95 151.421 157.394 150.638 156.122C149.855 154.85 149.669 152.966 150.122 150.883C150.574 148.8 151.627 146.689 153.05 145.015C153.858 144.065 154.756 143.29 155.677 142.748C156.598 142.206 157.518 141.912 158.369 141.887V141.888ZM130.895 149.5C132.169 149.463 133.225 150.032 133.891 151.114C134.674 152.386 134.86 154.271 134.408 156.354C133.955 158.437 132.902 160.548 131.48 162.221C130.775 163.05 130.001 163.747 129.202 164.271C128.403 164.796 127.594 165.138 126.822 165.279C126.05 165.419 125.33 165.355 124.702 165.09C124.074 164.825 123.552 164.365 123.164 163.735C122.382 162.463 122.196 160.578 122.649 158.495C123.101 156.412 124.154 154.302 125.577 152.628C126.385 151.677 127.283 150.902 128.204 150.361C129.125 149.819 130.045 149.525 130.896 149.5L130.895 149.5Z" fill="black"/>
</svg>
