<svg width="500" height="500" viewBox="0 0 500 500" fill="none" xmlns="http://www.w3.org/2000/svg">
<g clip-path="url(#clip0_1_2)">
<path d="M380.188 279.375C363.813 312.562 341.625 345.625 318.938 375.313C297.416 403.301 274.403 430.11 250 455.625C225.596 430.111 202.584 403.301 181.063 375.313C158.375 345.625 136.188 312.562 119.813 279.375C103.25 245.844 93.75 214.437 93.75 187.5C93.75 146.06 110.212 106.317 139.515 77.0146C168.817 47.712 208.56 31.25 250 31.25C291.44 31.25 331.183 47.712 360.485 77.0146C389.788 106.317 406.25 146.06 406.25 187.5C406.25 214.437 396.719 245.844 380.188 279.375ZM250 500C250 500 437.5 322.313 437.5 187.5C437.5 137.772 417.746 90.0805 382.583 54.9175C347.419 19.7544 299.728 0 250 0C200.272 0 152.581 19.7544 117.417 54.9175C82.2544 90.0805 62.5 137.772 62.5 187.5C62.5 322.313 250 500 250 500Z" fill="#F8F8F8"/>
<path d="M250 250C233.424 250 217.527 243.415 205.806 231.694C194.085 219.973 187.5 204.076 187.5 187.5C187.5 170.924 194.085 155.027 205.806 143.306C217.527 131.585 233.424 125 250 125C266.576 125 282.473 131.585 294.194 143.306C305.915 155.027 312.5 170.924 312.5 187.5C312.5 204.076 305.915 219.973 294.194 231.694C282.473 243.415 266.576 250 250 250ZM250 281.25C274.864 281.25 298.71 271.373 316.291 253.791C333.873 236.21 343.75 212.364 343.75 187.5C343.75 162.636 333.873 138.79 316.291 121.209C298.71 103.627 274.864 93.75 250 93.75C225.136 93.75 201.29 103.627 183.709 121.209C166.127 138.79 156.25 162.636 156.25 187.5C156.25 212.364 166.127 236.21 183.709 253.791C201.29 271.373 225.136 281.25 250 281.25V281.25Z" fill="#F8F8F8"/>
</g>
<defs>
<clipPath id="clip0_1_2">
<rect width="500" height="500" fill="white"/>
</clipPath>
</defs>
</svg>
